<?xml version="1.0" encoding="UTF-8" standalone="no"?>
<!-- Generator: Adobe Illustrator 18.0.0, SVG Export Plug-In . SVG Version: 6.00 Build 0)  -->

<svg
   xmlns:dc="http://purl.org/dc/elements/1.1/"
   xmlns:cc="http://creativecommons.org/ns#"
   xmlns:rdf="http://www.w3.org/1999/02/22-rdf-syntax-ns#"
   xmlns:svg="http://www.w3.org/2000/svg"
   xmlns="http://www.w3.org/2000/svg"
   xmlns:sodipodi="http://sodipodi.sourceforge.net/DTD/sodipodi-0.dtd"
   xmlns:inkscape="http://www.inkscape.org/namespaces/inkscape"
   version="1.1"
   id="Capa_1"
   x="0px"
   y="0px"
   viewBox="0 0 231.05 427.98099"
   xml:space="preserve"
   sodipodi:docname="bat_0.svg"
   width="231.05"
   height="427.98099"
   inkscape:version="0.92.4 5da689c313, 2019-01-14"><metadata
   id="metadata53"><rdf:RDF><cc:Work
       rdf:about=""><dc:format>image/svg+xml</dc:format><dc:type
         rdf:resource="http://purl.org/dc/dcmitype/StillImage" /><dc:title /></cc:Work></rdf:RDF></metadata><defs
   id="defs51">
	
	
	
	
	
	
	
</defs><sodipodi:namedview
   pagecolor="#ffffff"
   bordercolor="#666666"
   borderopacity="1"
   objecttolerance="10"
   gridtolerance="10"
   guidetolerance="10"
   inkscape:pageopacity="0"
   inkscape:pageshadow="2"
   inkscape:window-width="1272"
   inkscape:window-height="801"
   id="namedview49"
   showgrid="false"
   inkscape:zoom="1.008603"
   inkscape:cx="199.60042"
   inkscape:cy="160.07058"
   inkscape:window-x="638"
   inkscape:window-y="187"
   inkscape:window-maximized="0"
   inkscape:current-layer="Capa_1"
   fit-margin-top="5"
   fit-margin-left="5"
   fit-margin-right="5"
   fit-margin-bottom="5" />
<path
   inkscape:connector-curvature="0"
   id="path6"
   d="M 191.4,78.119 H 169.939 V 31.359 C 169.939,16.82 158.119,5 143.589,5 H 87.446 C 72.917,5 61.095,16.82 61.095,31.359 v 46.76 H 39.65 C 20.548,78.119 5,93.668 5,112.778 v 275.553 c 0,19.109 15.549,34.65 34.65,34.65 h 151.749 c 19.103,0 34.651,-15.541 34.651,-34.65 V 112.778 C 226.052,93.668 210.503,78.119 191.4,78.119 Z M 93.724,37.628 h 43.588 V 78.119 H 93.724 Z m 99.7,350.703 c 0,1.115 -0.908,2.022 -2.023,2.022 H 39.651 c -1.114,0 -2.023,-0.907 -2.023,-2.022 V 112.778 c 0,-1.124 0.908,-2.031 2.023,-2.031 H 61.096 169.939 191.4 c 1.115,0 2.023,0.907 2.023,2.031 v 275.553 z" />
<g
   id="g18"
   transform="translate(-241.922,-19.996)">
</g>
<g
   id="g20"
   transform="translate(-241.922,-19.996)">
</g>
<g
   id="g22"
   transform="translate(-241.922,-19.996)">
</g>
<g
   id="g24"
   transform="translate(-241.922,-19.996)">
</g>
<g
   id="g26"
   transform="translate(-241.922,-19.996)">
</g>
<g
   id="g28"
   transform="translate(-241.922,-19.996)">
</g>
<g
   id="g30"
   transform="translate(-241.922,-19.996)">
</g>
<g
   id="g32"
   transform="translate(-241.922,-19.996)">
</g>
<g
   id="g34"
   transform="translate(-241.922,-19.996)">
</g>
<g
   id="g36"
   transform="translate(-241.922,-19.996)">
</g>
<g
   id="g38"
   transform="translate(-241.922,-19.996)">
</g>
<g
   id="g40"
   transform="translate(-241.922,-19.996)">
</g>
<g
   id="g42"
   transform="translate(-241.922,-19.996)">
</g>
<g
   id="g44"
   transform="translate(-241.922,-19.996)">
</g>
<g
   id="g46"
   transform="translate(-241.922,-19.996)">
</g>


<g
   aria-label="!"
   style="font-style:normal;font-variant:normal;font-weight:normal;font-stretch:normal;font-size:119.96715546px;line-height:125%;font-family:'Liberation Mono';-inkscape-font-specification:'Liberation Mono';letter-spacing:0px;word-spacing:0px;fill:#fe0000;fill-opacity:1;stroke:none;stroke-width:1.40586507px;stroke-linecap:butt;stroke-linejoin:miter;stroke-opacity:1"
   id="text829"
   transform="translate(-6.1113199,4)"><path
     d="m 111.68543,153.83308 q 4.3494,-4.87659 10.01679,-4.87659 5.66739,0 9.88499,4.87659 4.34939,4.8766 4.34939,14.89338 0,7.7762 -0.92259,15.28879 -0.9226,7.38079 -2.7678,17.79298 -1.7134,10.41218 -2.7678,18.97917 -1.5816,12.65279 -2.3724,24.25118 -0.79079,11.46658 -1.05439,17.66117 -0.2636,6.1946 -0.5272,7.249 -0.5272,5.40379 -3.8222,5.40379 -3.295,0 -3.82219,-3.5586 -0.2636,-1.58159 -0.7908,-10.14858 -0.5272,-8.69879 -1.4498,-20.16538 -0.9226,-11.46659 -2.1088,-20.69258 -0.7908,-8.30339 -3.5586,-24.77837 -2.63599,-16.47498 -2.63599,-27.28257 0,-10.01678 4.34939,-14.89338 z m -0.1318,171.3398 q -4.21759,-4.21759 -4.21759,-10.14859 0,-5.93099 4.21759,-10.14858 4.2176,-4.2176 10.14859,-4.2176 5.93099,0 10.01679,4.2176 4.21759,4.21759 4.21759,10.14858 0,5.931 -4.21759,10.14859 -4.0858,4.0858 -10.01679,4.0858 -5.93099,0 -10.14859,-4.0858 z"
     style="font-style:normal;font-variant:normal;font-weight:normal;font-stretch:normal;font-size:269.92608643px;font-family:'Linux Libertine';-inkscape-font-specification:'Linux Libertine';stroke-width:1.40586507px;fill:#fe0000;fill-opacity:1"
     id="path831"
     inkscape:connector-curvature="0" /></g></svg>