<?xml version="1.0" encoding="UTF-8" standalone="no"?>
<svg
   xmlns:dc="http://purl.org/dc/elements/1.1/"
   xmlns:cc="http://creativecommons.org/ns#"
   xmlns:rdf="http://www.w3.org/1999/02/22-rdf-syntax-ns#"
   xmlns:svg="http://www.w3.org/2000/svg"
   xmlns="http://www.w3.org/2000/svg"
   xmlns:sodipodi="http://sodipodi.sourceforge.net/DTD/sodipodi-0.dtd"
   xmlns:inkscape="http://www.inkscape.org/namespaces/inkscape"
   height="427.98099"
   width="231.05"
   xml:space="preserve"
   viewBox="0 0 231.05 427.98099"
   y="0px"
   x="0px"
   id="Capa_1"
   version="1.1"
   sodipodi:docname="bat_c.svg"
   inkscape:version="0.92.4 5da689c313, 2019-01-14"><sodipodi:namedview
   pagecolor="#ffffff"
   bordercolor="#666666"
   borderopacity="1"
   objecttolerance="10"
   gridtolerance="10"
   guidetolerance="10"
   inkscape:pageopacity="0"
   inkscape:pageshadow="2"
   inkscape:window-width="1258"
   inkscape:window-height="795"
   id="namedview22"
   showgrid="false"
   inkscape:zoom="0.55142636"
   inkscape:cx="115.525"
   inkscape:cy="213.99049"
   inkscape:window-x="506"
   inkscape:window-y="95"
   inkscape:window-maximized="0"
   inkscape:current-layer="Capa_1" /><metadata
   id="metadata53"><rdf:RDF><cc:Work
       rdf:about=""><dc:format>image/svg+xml</dc:format><dc:type
         rdf:resource="http://purl.org/dc/dcmitype/StillImage" /><dc:title /></cc:Work></rdf:RDF></metadata><defs
   id="defs51">
	
	
	
	
	
	
	
</defs>
<path
   d="m 191.398,78.119 h -21.46 V 31.359 C 169.938,16.82 158.117,5 143.572,5 H 87.46 C 72.914,5 61.094,16.82 61.094,31.359 v 46.76 H 39.65 C 20.549,78.119 5,93.668 5,112.778 v 275.553 c 0,19.109 15.549,34.65 34.65,34.65 h 151.748 c 19.102,0 34.652,-15.541 34.652,-34.65 V 112.778 C 226.051,93.668 210.5,78.119 191.398,78.119 Z M 93.721,37.628 h 43.59 v 40.491 h -43.59 z m 99.701,350.703 c 0,1.115 -0.908,2.022 -2.023,2.022 H 39.65 c -1.115,0 -2.023,-0.907 -2.023,-2.022 V 112.778 c 0,-1.124 0.908,-2.031 2.023,-2.031 h 21.443 108.845 21.46 c 1.115,0 2.023,0.907 2.023,2.031 v 275.553 z"
   id="path2" /><path
   d="m 141.914,237.529 h -15.516 l 21.283,-70.026 c 0.67,-2.232 0.256,-4.652 -1.131,-6.523 -1.387,-1.873 -3.584,-2.98 -5.91,-2.98 h -34.571 c -3.251,0 -6.103,2.119 -7.06,5.219 L 70.86,255.835 c -0.671,2.23 -0.256,4.652 1.131,6.524 1.387,1.872 3.584,2.979 5.91,2.979 h 23.993 l -4.971,77.897 c -0.08,1.331 0.781,2.534 2.072,2.868 1.29,0.334 2.628,-0.287 3.202,-1.489 l 46.36,-96.538 c 1.099,-2.277 0.94,-4.963 -0.398,-7.104 -1.354,-2.144 -3.711,-3.443 -6.245,-3.443 z"
   id="path4"
   style="fill:#ffff02;fill-opacity:1" />
<g
   transform="translate(5,-19.996)"
   id="g18">
</g>
<g
   transform="translate(5,-19.996)"
   id="g20">
</g>
<g
   transform="translate(5,-19.996)"
   id="g22">
</g>
<g
   transform="translate(5,-19.996)"
   id="g24">
</g>
<g
   transform="translate(5,-19.996)"
   id="g26">
</g>
<g
   transform="translate(5,-19.996)"
   id="g28">
</g>
<g
   transform="translate(5,-19.996)"
   id="g30">
</g>
<g
   transform="translate(5,-19.996)"
   id="g32">
</g>
<g
   transform="translate(5,-19.996)"
   id="g34">
</g>
<g
   transform="translate(5,-19.996)"
   id="g36">
</g>
<g
   transform="translate(5,-19.996)"
   id="g38">
</g>
<g
   transform="translate(5,-19.996)"
   id="g40">
</g>
<g
   transform="translate(5,-19.996)"
   id="g42">
</g>
<g
   transform="translate(5,-19.996)"
   id="g44">
</g>
<g
   transform="translate(5,-19.996)"
   id="g46">
</g>
</svg>