<?xml version="1.0" encoding="UTF-8" standalone="no"?>
<svg
   xmlns:dc="http://purl.org/dc/elements/1.1/"
   xmlns:cc="http://creativecommons.org/ns#"
   xmlns:rdf="http://www.w3.org/1999/02/22-rdf-syntax-ns#"
   xmlns:svg="http://www.w3.org/2000/svg"
   xmlns="http://www.w3.org/2000/svg"
   xmlns:sodipodi="http://sodipodi.sourceforge.net/DTD/sodipodi-0.dtd"
   xmlns:inkscape="http://www.inkscape.org/namespaces/inkscape"
   height="427.98099"
   width="231.05"
   xml:space="preserve"
   viewBox="0 0 231.05 427.98099"
   y="0px"
   x="0px"
   id="Capa_1"
   version="1.1"
   sodipodi:docname="bat_4.svg"
   inkscape:version="0.92.4 5da689c313, 2019-01-14"><sodipodi:namedview
   pagecolor="#ffffff"
   bordercolor="#666666"
   borderopacity="1"
   objecttolerance="10"
   gridtolerance="10"
   guidetolerance="10"
   inkscape:pageopacity="0"
   inkscape:pageshadow="2"
   inkscape:window-width="1127"
   inkscape:window-height="689"
   id="namedview25"
   showgrid="false"
   inkscape:zoom="0.55142636"
   inkscape:cx="115.525"
   inkscape:cy="213.99049"
   inkscape:window-x="664"
   inkscape:window-y="290"
   inkscape:window-maximized="0"
   inkscape:current-layer="Capa_1" /><metadata
   id="metadata53"><rdf:RDF><cc:Work
       rdf:about=""><dc:format>image/svg+xml</dc:format><dc:type
         rdf:resource="http://purl.org/dc/dcmitype/StillImage" /><dc:title /></cc:Work></rdf:RDF></metadata><defs
   id="defs51">
	
	
	
	
	
	
	
</defs>
<path
   d="M 191.4,78.119 H 169.939 V 31.359 C 169.939,16.82 158.119,5 143.589,5 H 87.446 C 72.917,5 61.095,16.82 61.095,31.359 v 46.76 H 39.65 C 20.548,78.119 5,93.668 5,112.778 v 275.553 c 0,19.109 15.549,34.65 34.65,34.65 h 151.749 c 19.103,0 34.651,-15.541 34.651,-34.65 V 112.778 C 226.052,93.668 210.503,78.119 191.4,78.119 Z M 93.724,37.628 h 43.588 V 78.119 H 93.724 Z m 99.7,350.703 c 0,1.115 -0.908,2.022 -2.023,2.022 H 39.651 c -1.114,0 -2.023,-0.907 -2.023,-2.022 V 112.778 c 0,-1.124 0.908,-2.031 2.023,-2.031 H 61.096 169.939 191.4 c 1.115,0 2.023,0.907 2.023,2.031 v 275.553 z"
   id="path6" /><rect
   x="57.399014"
   y="197.534"
   width="116.237"
   height="40.784"
   id="rect8"
   style="fill:#00ff85;fill-opacity:1" /><path
   d="m 163.918,130.493 h -96.8 c -5.369,0 -9.719,4.357 -9.719,9.727 v 32.843 H 173.636 V 140.22 c 0.001,-5.369 -4.349,-9.727 -9.718,-9.727 z"
   id="path10"
   style="fill:#00ff85;fill-opacity:1" /><path
   d="m 57.399,360.881 c 0,5.369 4.35,9.727 9.719,9.727 h 96.8 c 5.369,0 9.719,-4.357 9.719,-9.727 V 328.046 H 57.399 Z"
   id="path12"
   style="fill:#00ff85;fill-opacity:1" /><rect
   x="57.399014"
   y="262.79001"
   width="116.237"
   height="40.784"
   id="rect14"
   style="fill:#00ff85;fill-opacity:1" />
<g
   transform="translate(-241.922,-19.996)"
   id="g18">
</g>
<g
   transform="translate(-241.922,-19.996)"
   id="g20">
</g>
<g
   transform="translate(-241.922,-19.996)"
   id="g22">
</g>
<g
   transform="translate(-241.922,-19.996)"
   id="g24">
</g>
<g
   transform="translate(-241.922,-19.996)"
   id="g26">
</g>
<g
   transform="translate(-241.922,-19.996)"
   id="g28">
</g>
<g
   transform="translate(-241.922,-19.996)"
   id="g30">
</g>
<g
   transform="translate(-241.922,-19.996)"
   id="g32">
</g>
<g
   transform="translate(-241.922,-19.996)"
   id="g34">
</g>
<g
   transform="translate(-241.922,-19.996)"
   id="g36">
</g>
<g
   transform="translate(-241.922,-19.996)"
   id="g38">
</g>
<g
   transform="translate(-241.922,-19.996)"
   id="g40">
</g>
<g
   transform="translate(-241.922,-19.996)"
   id="g42">
</g>
<g
   transform="translate(-241.922,-19.996)"
   id="g44">
</g>
<g
   transform="translate(-241.922,-19.996)"
   id="g46">
</g>
</svg>