<?xml version="1.0" encoding="UTF-8" standalone="no"?>
<svg
   xmlns:dc="http://purl.org/dc/elements/1.1/"
   xmlns:cc="http://creativecommons.org/ns#"
   xmlns:rdf="http://www.w3.org/1999/02/22-rdf-syntax-ns#"
   xmlns:svg="http://www.w3.org/2000/svg"
   xmlns="http://www.w3.org/2000/svg"
   xmlns:sodipodi="http://sodipodi.sourceforge.net/DTD/sodipodi-0.dtd"
   xmlns:inkscape="http://www.inkscape.org/namespaces/inkscape"
   height="427.98099"
   width="231.05"
   xml:space="preserve"
   viewBox="0 0 231.05 427.98099"
   y="0px"
   x="0px"
   id="Capa_1"
   version="1.1"
   sodipodi:docname="offline.svg"
   inkscape:version="0.92.4 5da689c313, 2019-01-14"><sodipodi:namedview
   pagecolor="#ffffff"
   bordercolor="#666666"
   borderopacity="1"
   objecttolerance="10"
   gridtolerance="10"
   guidetolerance="10"
   inkscape:pageopacity="0"
   inkscape:pageshadow="2"
   inkscape:window-width="987"
   inkscape:window-height="749"
   id="namedview30"
   showgrid="false"
   inkscape:zoom="0.55142636"
   inkscape:cx="115.525"
   inkscape:cy="213.99049"
   inkscape:window-x="805"
   inkscape:window-y="179"
   inkscape:window-maximized="0"
   inkscape:current-layer="Capa_1" /><metadata
   id="metadata53"><rdf:RDF><cc:Work
       rdf:about=""><dc:format>image/svg+xml</dc:format><dc:type
         rdf:resource="http://purl.org/dc/dcmitype/StillImage" /><dc:title /></cc:Work></rdf:RDF></metadata><defs
   id="defs51">
	
	
	
	
	
	
	
</defs>
<path
   d="M 191.4,78.119 H 169.939 V 31.359 C 169.939,16.82 158.119,5 143.589,5 H 87.446 C 72.917,5 61.095,16.82 61.095,31.359 v 46.76 H 39.65 C 20.548,78.119 5,93.668 5,112.778 v 275.553 c 0,19.109 15.549,34.65 34.65,34.65 h 151.749 c 19.103,0 34.651,-15.541 34.651,-34.65 V 112.778 C 226.052,93.668 210.503,78.119 191.4,78.119 Z M 93.724,37.628 h 43.588 V 78.119 H 93.724 Z m 99.7,350.703 c 0,1.115 -0.908,2.022 -2.023,2.022 H 39.651 c -1.114,0 -2.023,-0.907 -2.023,-2.022 V 112.778 c 0,-1.124 0.908,-2.031 2.023,-2.031 H 61.096 169.939 191.4 c 1.115,0 2.023,0.907 2.023,2.031 v 275.553 z"
   id="path6"
   style="opacity:1;fill:#999999;fill-opacity:1" />
<g
   transform="translate(-241.922,-19.996)"
   id="g18">
</g>
<g
   transform="translate(-241.922,-19.996)"
   id="g20">
</g>
<g
   transform="translate(-241.922,-19.996)"
   id="g22">
</g>
<g
   transform="translate(-241.922,-19.996)"
   id="g24">
</g>
<g
   transform="translate(-241.922,-19.996)"
   id="g26">
</g>
<g
   transform="translate(-241.922,-19.996)"
   id="g28">
</g>
<g
   transform="translate(-241.922,-19.996)"
   id="g30">
</g>
<g
   transform="translate(-241.922,-19.996)"
   id="g32">
</g>
<g
   transform="translate(-241.922,-19.996)"
   id="g34">
</g>
<g
   transform="translate(-241.922,-19.996)"
   id="g36">
</g>
<g
   transform="translate(-241.922,-19.996)"
   id="g38">
</g>
<g
   transform="translate(-241.922,-19.996)"
   id="g40">
</g>
<g
   transform="translate(-241.922,-19.996)"
   id="g42">
</g>
<g
   transform="translate(-241.922,-19.996)"
   id="g44">
</g>
<g
   transform="translate(-241.922,-19.996)"
   id="g46">
</g>
<g
   id="text983"
   style="font-style:normal;font-variant:normal;font-weight:normal;font-stretch:normal;font-size:85.33333588px;line-height:125%;font-family:'Liberation Mono';-inkscape-font-specification:'Liberation Mono';letter-spacing:0px;word-spacing:0px;fill:#000000;fill-opacity:1;stroke:none;stroke-width:1px;stroke-linecap:butt;stroke-linejoin:miter;stroke-opacity:1;opacity:1"
   aria-label="OFF"><path
     id="path1734"
     style="font-style:normal;font-variant:normal;font-weight:normal;font-stretch:normal;font-size:74.66666412px;font-family:unifont;-inkscape-font-specification:unifont"
     d="m 68.858335,243.28417 v 4.66667 h 18.666666 v -4.66667 z m 0,0 v -4.66667 -4.66666 -4.66667 -4.66667 -4.66666 -4.66667 -4.66667 -4.66666 h -4.666667 v 4.66666 4.66667 4.66667 4.66666 4.66667 4.66667 4.66666 4.66667 z m 18.666666,0 h 4.666666 v -4.66667 -4.66666 -4.66667 -4.66667 -4.66666 -4.66667 -4.66667 -4.66666 h -4.666666 v 4.66666 4.66667 4.66667 4.66666 4.66667 4.66667 4.66666 z M 68.858335,205.95084 h 18.666666 v -4.66667 H 68.858335 Z" /><path
     id="path1736"
     style="font-style:normal;font-variant:normal;font-weight:normal;font-stretch:normal;font-size:74.66666412px;font-family:unifont;-inkscape-font-specification:unifont"
     d="m 124.85833,224.6175 v -4.66666 h -18.66666 v -4.66667 -4.66667 -4.66666 H 129.525 v -4.66667 h -28 v 4.66667 4.66666 4.66667 4.66667 4.66666 4.66667 4.66667 4.66666 4.66667 4.66667 h 4.66667 v -4.66667 -4.66667 -4.66666 -4.66667 -4.66667 z" /><path
     id="path1738"
     style="font-style:normal;font-variant:normal;font-weight:normal;font-stretch:normal;font-size:74.66666412px;font-family:unifont;-inkscape-font-specification:unifont"
     d="m 162.19166,224.6175 v -4.66666 H 143.525 v -4.66667 -4.66667 -4.66666 h 23.33333 v -4.66667 h -28 v 4.66667 4.66666 4.66667 4.66667 4.66666 4.66667 4.66667 4.66666 4.66667 4.66667 h 4.66667 v -4.66667 -4.66667 -4.66666 -4.66667 -4.66667 z" /></g><g
   id="text991"
   style="font-style:normal;font-variant:normal;font-weight:normal;font-stretch:normal;font-size:85.33333588px;line-height:125%;font-family:'Liberation Mono';-inkscape-font-specification:'Liberation Mono';letter-spacing:0px;word-spacing:0px;fill:#000000;fill-opacity:1;stroke:none;stroke-width:1px;stroke-linecap:butt;stroke-linejoin:miter;stroke-opacity:1;opacity:1"
   aria-label="LINE"><path
     id="path1741"
     style="font-style:normal;font-variant:normal;font-weight:normal;font-stretch:normal;font-size:74.66666412px;font-family:unifont;-inkscape-font-specification:unifont"
     d="m 73.524999,307.26144 v -4.66666 H 50.191667 v -4.66667 -4.66667 -4.66666 -4.66667 -4.66666 -4.66667 -4.66667 -4.66666 -4.66667 H 45.525 v 4.66667 4.66666 4.66667 4.66667 4.66666 4.66667 4.66666 4.66667 4.66667 4.66666 z" /><path
     id="path1743"
     style="font-style:normal;font-variant:normal;font-weight:normal;font-stretch:normal;font-size:74.66666412px;font-family:unifont;-inkscape-font-specification:unifont"
     d="m 110.85833,307.26144 v -4.66666 H 101.525 v -4.66667 -4.66667 -4.66666 -4.66667 -4.66666 -4.66667 -4.66667 -4.66666 h 9.33333 v -4.66667 H 87.524999 v 4.66667 h 9.333333 v 4.66666 4.66667 4.66667 4.66666 4.66667 4.66666 4.66667 4.66667 h -9.333333 v 4.66666 z" /><path
     id="path1745"
     style="font-style:normal;font-variant:normal;font-weight:normal;font-stretch:normal;font-size:74.66666412px;font-family:unifont;-inkscape-font-specification:unifont"
     d="m 120.19166,302.59478 v 4.66666 h 4.66667 v -4.66666 -4.66667 -4.66667 -4.66666 -4.66667 -4.66666 -4.66667 h 4.66667 v 4.66667 4.66666 h 4.66666 v 4.66667 4.66666 h 4.66667 v 4.66667 4.66667 h 4.66667 v 4.66666 h 4.66666 v -4.66666 -4.66667 -4.66667 -4.66666 -4.66667 -4.66666 -4.66667 -4.66667 -4.66666 -4.66667 H 143.525 v 4.66667 4.66666 4.66667 4.66667 4.66666 4.66667 4.66666 h -4.66667 v -4.66666 -4.66667 h -4.66667 v -4.66666 -4.66667 H 129.525 v -4.66667 -4.66666 h -4.66667 v -4.66667 h -4.66667 v 4.66667 4.66666 4.66667 4.66667 4.66666 4.66667 4.66666 4.66667 z" /><path
     id="path1747"
     style="font-style:normal;font-variant:normal;font-weight:normal;font-stretch:normal;font-size:74.66666412px;font-family:unifont;-inkscape-font-specification:unifont"
     d="m 185.525,307.26144 v -4.66666 h -23.33333 v -4.66667 -4.66667 -4.66666 -4.66667 h 18.66666 v -4.66666 h -18.66666 v -4.66667 -4.66667 -4.66666 H 185.525 v -4.66667 h -28 v 4.66667 4.66666 4.66667 4.66667 4.66666 4.66667 4.66666 4.66667 4.66667 4.66666 z" /></g></svg>