<?xml version="1.0" encoding="UTF-8" standalone="no"?>
<!-- Generator: Adobe Illustrator 16.0.0, SVG Export Plug-In . SVG Version: 6.00 Build 0)  -->

<svg
   xmlns:dc="http://purl.org/dc/elements/1.1/"
   xmlns:cc="http://creativecommons.org/ns#"
   xmlns:rdf="http://www.w3.org/1999/02/22-rdf-syntax-ns#"
   xmlns:svg="http://www.w3.org/2000/svg"
   xmlns="http://www.w3.org/2000/svg"
   xmlns:sodipodi="http://sodipodi.sourceforge.net/DTD/sodipodi-0.dtd"
   xmlns:inkscape="http://www.inkscape.org/namespaces/inkscape"
   version="1.1"
   id="Capa_1"
   x="0px"
   y="0px"
   width="68.508476"
   height="68.508476"
   viewBox="0 0 68.508476 68.508477"
   xml:space="preserve"
   sodipodi:docname="secret.svg"
   inkscape:version="0.92.4 5da689c313, 2019-01-14"><metadata
   id="metadata47"><rdf:RDF><cc:Work
       rdf:about=""><dc:format>image/svg+xml</dc:format><dc:type
         rdf:resource="http://purl.org/dc/dcmitype/StillImage" /><dc:title></dc:title></cc:Work></rdf:RDF></metadata><defs
   id="defs45" /><sodipodi:namedview
   pagecolor="#ffffff"
   bordercolor="#666666"
   borderopacity="1"
   objecttolerance="10"
   gridtolerance="10"
   guidetolerance="10"
   inkscape:pageopacity="0"
   inkscape:pageshadow="2"
   inkscape:window-width="1254"
   inkscape:window-height="795"
   id="namedview43"
   showgrid="false"
   fit-margin-top="0"
   fit-margin-left="0"
   fit-margin-right="0"
   fit-margin-bottom="0"
   inkscape:zoom="5.0212766"
   inkscape:cx="43.358051"
   inkscape:cy="19.961173"
   inkscape:window-x="597"
   inkscape:window-y="228"
   inkscape:window-maximized="0"
   inkscape:current-layer="Capa_1" />
<g
   id="g10"
   transform="translate(10.754238,10.754238)">
	<g
   id="g8">
		<path
   d="m 46.49,11.312 c -0.307,0.53 -0.84,1.088 -1.749,1.636 l -13.409,8.043 c 0.947,0.705 1.566,1.824 1.566,3.091 v 0.898 l 7.332,4.047 c 0.453,0.25 0.617,0.823 0.367,1.276 -0.173,0.312 -0.494,0.485 -0.824,0.485 -0.153,0 -0.311,-0.037 -0.457,-0.115 l -6.418,-3.545 v 3.633 c 0,2.126 -1.729,3.857 -3.859,3.857 H 17.961 c -2.13,0 -3.86,-1.73 -3.86,-3.857 V 27.126 L 7.679,30.673 C 7.535,30.751 7.376,30.788 7.226,30.788 6.893,30.788 6.574,30.614 6.402,30.303 6.153,29.85 6.314,29.277 6.77,29.027 l 7.331,-4.048 v -0.897 c 0,-1.268 0.618,-2.387 1.566,-3.09 L 2.257,12.948 C 1.345,12.401 0.811,11.843 0.506,11.312 0.194,11.86 0,12.486 0,13.16 v 20.678 c 0,2.068 1.692,3.763 3.759,3.763 H 43.241 C 45.306,37.601 47,35.907 47,33.838 V 13.16 c -0.004,-0.674 -0.198,-1.3 -0.51,-1.848 z"
   id="path2"
   inkscape:connector-curvature="0" />
		<path
   d="m 3.221,11.335 13.143,7.885 c 0.168,-3.799 3.301,-6.84 7.136,-6.84 3.835,0 6.967,3.04 7.137,6.837 L 43.774,11.335 C 45.55,10.27 45.303,9.399 43.239,9.399 H 3.755 c -2.067,0 -2.31,0.871 -0.534,1.936 z"
   id="path4"
   inkscape:connector-curvature="0" />
		<path
   d="m 23.499,14.26 c -2.909,0 -5.272,2.367 -5.272,5.275 v 2.567 h -0.266 c -1.092,0 -1.979,0.891 -1.979,1.98 v 6.681 c 0,1.086 0.888,1.978 1.979,1.978 h 11.078 c 1.092,0 1.979,-0.891 1.979,-1.978 v -6.681 c 0,-1.089 -0.888,-1.98 -1.979,-1.98 h -0.268 v -2.567 c 0,-2.909 -2.363,-5.275 -5.272,-5.275 z m 2.635,7.843 h -5.27 v -2.567 c 0,-1.456 1.184,-2.639 2.635,-2.639 1.451,0 2.635,1.183 2.635,2.639 z"
   id="path6"
   inkscape:connector-curvature="0" />
	</g>
</g>
<g
   id="g12"
   transform="translate(24.338983,17.0812)">
</g>
<g
   id="g14"
   transform="translate(24.338983,17.0812)">
</g>
<g
   id="g16"
   transform="translate(24.338983,17.0812)">
</g>
<g
   id="g18"
   transform="translate(24.338983,17.0812)">
</g>
<g
   id="g20"
   transform="translate(24.338983,17.0812)">
</g>
<g
   id="g22"
   transform="translate(24.338983,17.0812)">
</g>
<g
   id="g24"
   transform="translate(24.338983,17.0812)">
</g>
<g
   id="g26"
   transform="translate(24.338983,17.0812)">
</g>
<g
   id="g28"
   transform="translate(24.338983,17.0812)">
</g>
<g
   id="g30"
   transform="translate(24.338983,17.0812)">
</g>
<g
   id="g32"
   transform="translate(24.338983,17.0812)">
</g>
<g
   id="g34"
   transform="translate(24.338983,17.0812)">
</g>
<g
   id="g36"
   transform="translate(24.338983,17.0812)">
</g>
<g
   id="g38"
   transform="translate(24.338983,17.0812)">
</g>
<g
   id="g40"
   transform="translate(24.338983,17.0812)">
</g>
<rect
   style="opacity:1;fill:none;fill-opacity:1;fill-rule:nonzero;stroke:none;stroke-width:1;stroke-linecap:round;stroke-miterlimit:4;stroke-dasharray:none;stroke-dashoffset:0;stroke-opacity:0.99539173;paint-order:normal"
   id="rect834"
   width="68.508476"
   height="68.508476"
   x="0"
   y="0" /></svg>